<svg width="116" height="24" viewBox="0 0 116 24" fill="none" xmlns="http://www.w3.org/2000/svg">
<path d="M9.46513 23.224C7.82246 23.224 6.35046 22.9573 5.04913 22.424C3.74779 21.8907 2.70246 21.1013 1.91313 20.056C1.14513 19.0107 0.739793 17.752 0.697127 16.28H6.52113C6.60646 17.112 6.89446 17.752 7.38513 18.2C7.87579 18.6267 8.51579 18.84 9.30513 18.84C10.1158 18.84 10.7558 18.6587 11.2251 18.296C11.6945 17.912 11.9291 17.3893 11.9291 16.728C11.9291 16.1733 11.7371 15.7147 11.3531 15.352C10.9905 14.9893 10.5318 14.6907 9.97713 14.456C9.44379 14.2213 8.67579 13.9547 7.67313 13.656C6.22246 13.208 5.03846 12.76 4.12113 12.312C3.20379 11.864 2.41446 11.2027 1.75313 10.328C1.09179 9.45333 0.761127 8.312 0.761127 6.904C0.761127 4.81333 1.51846 3.18133 3.03313 2.008C4.54779 0.813333 6.52113 0.216 8.95313 0.216C11.4278 0.216 13.4225 0.813333 14.9371 2.008C16.4518 3.18133 17.2625 4.824 17.3691 6.936H11.4491C11.4065 6.21067 11.1398 5.64533 10.6491 5.24C10.1585 4.81333 9.52913 4.6 8.76113 4.6C8.09979 4.6 7.56646 4.78133 7.16113 5.144C6.75579 5.48533 6.55313 5.98667 6.55313 6.648C6.55313 7.37333 6.89446 7.93867 7.57713 8.344C8.25979 8.74933 9.32646 9.18667 10.7771 9.656C12.2278 10.1467 13.4011 10.616 14.2971 11.064C15.2145 11.512 16.0038 12.1627 16.6651 13.016C17.3265 13.8693 17.6571 14.968 17.6571 16.312C17.6571 17.592 17.3265 18.7547 16.6651 19.8C16.0251 20.8453 15.0865 21.6773 13.8491 22.296C12.6118 22.9147 11.1505 23.224 9.46513 23.224ZM20.5766 14.04C20.5766 12.2053 20.918 10.5947 21.6006 9.208C22.3046 7.82133 23.254 6.75467 24.4486 6.008C25.6433 5.26133 26.9766 4.888 28.4486 4.888C29.7073 4.888 30.806 5.144 31.7446 5.656C32.7046 6.168 33.4406 6.84 33.9526 7.672V5.144H39.4246V23H33.9526V20.472C33.4193 21.304 32.6726 21.976 31.7126 22.488C30.774 23 29.6753 23.256 28.4166 23.256C26.966 23.256 25.6433 22.8827 24.4486 22.136C23.254 21.368 22.3046 20.2907 21.6006 18.904C20.918 17.496 20.5766 15.8747 20.5766 14.04ZM33.9526 14.072C33.9526 12.7067 33.5686 11.6293 32.8006 10.84C32.054 10.0507 31.1366 9.656 30.0486 9.656C28.9606 9.656 28.0326 10.0507 27.2646 10.84C26.518 11.608 26.1446 12.6747 26.1446 14.04C26.1446 15.4053 26.518 16.4933 27.2646 17.304C28.0326 18.0933 28.9606 18.488 30.0486 18.488C31.1366 18.488 32.054 18.0933 32.8006 17.304C33.5686 16.5147 33.9526 15.4373 33.9526 14.072ZM49.1434 18.488H56.8874V23H43.0314V18.648L50.4554 9.656H43.0954V5.144H56.7274V9.496L49.1434 18.488ZM65.6584 18.488H73.4024V23H59.5464V18.648L66.9704 9.656H59.6104V5.144H73.2424V9.496L65.6584 18.488ZM85.1814 23.256C83.432 23.256 81.8534 22.8827 80.4454 22.136C79.0587 21.3893 77.96 20.3227 77.1494 18.936C76.36 17.5493 75.9654 15.928 75.9654 14.072C75.9654 12.2373 76.3707 10.6267 77.1814 9.24C77.992 7.832 79.1014 6.75467 80.5094 6.008C81.9174 5.26133 83.496 4.888 85.2454 4.888C86.9947 4.888 88.5734 5.26133 89.9814 6.008C91.3894 6.75467 92.4987 7.832 93.3094 9.24C94.12 10.6267 94.5254 12.2373 94.5254 14.072C94.5254 15.9067 94.1094 17.528 93.2774 18.936C92.4667 20.3227 91.3467 21.3893 89.9174 22.136C88.5094 22.8827 86.9307 23.256 85.1814 23.256ZM85.1814 18.52C86.2267 18.52 87.112 18.136 87.8374 17.368C88.584 16.6 88.9574 15.5013 88.9574 14.072C88.9574 12.6427 88.5947 11.544 87.8694 10.776C87.1654 10.008 86.2907 9.624 85.2454 9.624C84.1787 9.624 83.2934 10.008 82.5894 10.776C81.8854 11.5227 81.5334 12.6213 81.5334 14.072C81.5334 15.5013 81.8747 16.6 82.5574 17.368C83.2614 18.136 84.136 18.52 85.1814 18.52ZM108.948 4.952C111.039 4.952 112.703 5.63467 113.94 7C115.199 8.344 115.828 10.2 115.828 12.568V23H110.388V13.304C110.388 12.1093 110.079 11.1813 109.46 10.52C108.842 9.85867 108.01 9.528 106.964 9.528C105.919 9.528 105.087 9.85867 104.468 10.52C103.85 11.1813 103.54 12.1093 103.54 13.304V23H98.0684V5.144H103.54V7.512C104.095 6.72267 104.842 6.104 105.78 5.656C106.719 5.18667 107.775 4.952 108.948 4.952Z" fill="#F6532A"/>
</svg>
